<svg width="321" height="43" viewBox="0 0 321 43" fill="none" xmlns="http://www.w3.org/2000/svg">
<rect width="321" height="43" rx="6" fill="#E6911A"/>
<path d="M24.3011 26.9574V30H13.2386V26.9574H24.3011ZM24.0455 12.6136V15.6733H13.6307V12.6136H24.0455ZM21.0284 21.2131V21.392L14.7727 30H11.8324V28.2102L17.108 21.3068L11.8324 14.4205V12.6136H14.7727L21.0284 21.2131Z" fill="#102262"/>
<path d="M43.0661 18.6562H39.3331C39.2649 18.1733 39.1257 17.7443 38.9155 17.3693C38.7053 16.9886 38.4354 16.6648 38.1058 16.3977C37.7763 16.1307 37.3956 15.9261 36.9638 15.7841C36.5376 15.642 36.0746 15.571 35.5746 15.571C34.6712 15.571 33.8842 15.7955 33.2138 16.2443C32.5433 16.6875 32.0234 17.3352 31.6541 18.1875C31.2848 19.0341 31.1001 20.0625 31.1001 21.2727C31.1001 22.517 31.2848 23.5625 31.6541 24.4091C32.0291 25.2557 32.5518 25.8949 33.2223 26.3267C33.8928 26.7585 34.6683 26.9744 35.549 26.9744C36.0433 26.9744 36.5007 26.9091 36.9212 26.7784C37.3473 26.6477 37.7251 26.4574 38.0547 26.2074C38.3842 25.9517 38.657 25.642 38.8729 25.2784C39.0945 24.9148 39.2479 24.5 39.3331 24.0341L43.0661 24.0511C42.9695 24.8523 42.728 25.625 42.3416 26.3693C41.9609 27.108 41.4467 27.7699 40.799 28.3551C40.157 28.9347 39.3899 29.3949 38.4979 29.7358C37.6115 30.071 36.6087 30.2386 35.4893 30.2386C33.9325 30.2386 32.5405 29.8864 31.3132 29.1818C30.0916 28.4773 29.1257 27.4574 28.4155 26.1222C27.7109 24.7869 27.3587 23.1705 27.3587 21.2727C27.3587 19.3693 27.7166 17.75 28.4325 16.4148C29.1484 15.0795 30.12 14.0625 31.3473 13.3636C32.5746 12.6591 33.9553 12.3068 35.4893 12.3068C36.5007 12.3068 37.4382 12.4489 38.3018 12.733C39.1712 13.017 39.9411 13.4318 40.6115 13.9773C41.282 14.517 41.8274 15.179 42.2479 15.9631C42.674 16.7472 42.9467 17.6449 43.0661 18.6562ZM49.3771 30.2472C48.5419 30.2472 47.7976 30.1023 47.1442 29.8125C46.4908 29.517 45.9737 29.0824 45.593 28.5085C45.218 27.929 45.0305 27.2074 45.0305 26.3438C45.0305 25.6165 45.1641 25.0057 45.4311 24.5114C45.6982 24.017 46.0618 23.6193 46.522 23.3182C46.9822 23.017 47.505 22.7898 48.0902 22.6364C48.6811 22.483 49.3004 22.375 49.9482 22.3125C50.7095 22.233 51.3232 22.1591 51.7891 22.0909C52.255 22.017 52.593 21.9091 52.8033 21.767C53.0135 21.625 53.1186 21.4148 53.1186 21.1364V21.0852C53.1186 20.5455 52.9482 20.1278 52.6072 19.8324C52.272 19.5369 51.7947 19.3892 51.1754 19.3892C50.522 19.3892 50.0021 19.5341 49.6158 19.8239C49.2294 20.108 48.9737 20.4659 48.8487 20.8977L45.4908 20.625C45.6612 19.8295 45.9964 19.142 46.4964 18.5625C46.9964 17.9773 47.6413 17.5284 48.4311 17.2159C49.2266 16.8977 50.147 16.7386 51.1925 16.7386C51.9197 16.7386 52.6158 16.8239 53.2805 16.9943C53.951 17.1648 54.5447 17.429 55.0618 17.7869C55.5845 18.1449 55.9964 18.6051 56.2976 19.1676C56.5987 19.7244 56.7493 20.392 56.7493 21.1705V30H53.3061V28.1847H53.2038C52.9936 28.5938 52.7124 28.9545 52.3601 29.267C52.0078 29.5739 51.5845 29.8153 51.0902 29.9915C50.5959 30.1619 50.0249 30.2472 49.3771 30.2472ZM50.4169 27.7415C50.951 27.7415 51.4226 27.6364 51.8317 27.4261C52.2408 27.2102 52.5618 26.9205 52.7947 26.5568C53.0277 26.1932 53.1442 25.7812 53.1442 25.321V23.9318C53.0305 24.0057 52.8743 24.0739 52.6754 24.1364C52.4822 24.1932 52.2635 24.2472 52.0192 24.2983C51.7749 24.3437 51.5305 24.3864 51.2862 24.4261C51.0419 24.4602 50.8203 24.4915 50.6214 24.5199C50.1953 24.5824 49.8232 24.6818 49.505 24.8182C49.1868 24.9545 48.9396 25.1392 48.7635 25.3722C48.5874 25.5994 48.4993 25.8835 48.4993 26.2244C48.4993 26.7188 48.6783 27.0966 49.0362 27.358C49.3999 27.6136 49.8601 27.7415 50.4169 27.7415ZM59.5661 30V16.9091H63.0859V19.1932H63.2223C63.4609 18.3807 63.8615 17.767 64.424 17.3523C64.9865 16.9318 65.6342 16.7216 66.3672 16.7216C66.549 16.7216 66.745 16.733 66.9553 16.7557C67.1655 16.7784 67.3501 16.8097 67.5092 16.8494V20.071C67.3388 20.0199 67.103 19.9744 66.8018 19.9347C66.5007 19.8949 66.2251 19.875 65.9751 19.875C65.4411 19.875 64.9638 19.9915 64.5433 20.2244C64.1286 20.4517 63.799 20.7699 63.5547 21.179C63.3161 21.5881 63.1967 22.0597 63.1967 22.5938V30H59.5661ZM80.2784 20.642L76.9545 20.8466C76.8977 20.5625 76.7756 20.3068 76.5881 20.0795C76.4006 19.8466 76.1534 19.6619 75.8466 19.5256C75.5455 19.3835 75.1847 19.3125 74.7642 19.3125C74.2017 19.3125 73.7273 19.4318 73.3409 19.6705C72.9545 19.9034 72.7614 20.2159 72.7614 20.608C72.7614 20.9205 72.8864 21.1847 73.1364 21.4006C73.3864 21.6165 73.8153 21.7898 74.4233 21.9205L76.7926 22.3977C78.0653 22.6591 79.0142 23.0795 79.6392 23.6591C80.2642 24.2386 80.5767 25 80.5767 25.9432C80.5767 26.8011 80.3239 27.554 79.8182 28.2017C79.3182 28.8494 78.6307 29.3551 77.7557 29.7188C76.8864 30.0767 75.8835 30.2557 74.7472 30.2557C73.0142 30.2557 71.6335 29.8949 70.6051 29.1733C69.5824 28.446 68.983 27.4574 68.8068 26.2074L72.3778 26.0199C72.4858 26.5483 72.7472 26.9517 73.1619 27.2301C73.5767 27.5028 74.108 27.6392 74.7557 27.6392C75.392 27.6392 75.9034 27.517 76.2898 27.2727C76.6818 27.0227 76.8807 26.7017 76.8864 26.3097C76.8807 25.9801 76.7415 25.7102 76.4688 25.5C76.196 25.2841 75.7756 25.1193 75.2074 25.0057L72.9403 24.554C71.6619 24.2983 70.7102 23.8551 70.0852 23.2244C69.4659 22.5937 69.1562 21.7898 69.1562 20.8125C69.1562 19.9716 69.3835 19.2472 69.8381 18.6392C70.2983 18.0312 70.9432 17.5625 71.7727 17.233C72.608 16.9034 73.5852 16.7386 74.7045 16.7386C76.358 16.7386 77.6591 17.0881 78.608 17.7869C79.5625 18.4858 80.1193 19.4375 80.2784 20.642Z" fill="#F5F5F5"/>
</svg>
