<svg width="800" height="100" viewBox="0 0 800 100" fill="none" xmlns="http://www.w3.org/2000/svg">
<rect width="800" height="100" rx="6" fill="#E6911A"/>
<path d="M63.1364 64.8864V73H33.6364V64.8864H63.1364ZM62.4545 26.6364V34.7955H34.6818V26.6364H62.4545ZM54.4091 49.5682V50.0455L37.7273 73H29.8864V68.2273L43.9545 49.8182L29.8864 31.4545V26.6364H37.7273L54.4091 49.5682Z" fill="#102262"/>
<path d="M113.176 42.75H103.222C103.04 41.4621 102.669 40.3182 102.108 39.3182C101.547 38.303 100.828 37.4394 99.9489 36.7273C99.0701 36.0151 98.0549 35.4697 96.9034 35.0909C95.767 34.7121 94.5322 34.5227 93.1989 34.5227C90.7898 34.5227 88.6913 35.1212 86.9034 36.3182C85.1155 37.5 83.7292 39.2273 82.7443 41.5C81.7595 43.7576 81.267 46.5 81.267 49.7273C81.267 53.0455 81.7595 55.8333 82.7443 58.0909C83.7443 60.3485 85.1383 62.053 86.9261 63.2045C88.714 64.3561 90.7822 64.9318 93.1307 64.9318C94.4489 64.9318 95.6686 64.7576 96.7898 64.4091C97.9261 64.0606 98.9337 63.553 99.8125 62.8864C100.691 62.2045 101.419 61.3788 101.994 60.4091C102.585 59.4394 102.994 58.3333 103.222 57.0909L113.176 57.1364C112.919 59.2727 112.275 61.3333 111.244 63.3182C110.229 65.2879 108.858 67.053 107.131 68.6136C105.419 70.1591 103.373 71.3864 100.994 72.2955C98.6307 73.1894 95.9564 73.6364 92.9716 73.6364C88.8201 73.6364 85.108 72.697 81.8352 70.8182C78.5777 68.9394 76.0019 66.2197 74.108 62.6591C72.2292 59.0985 71.2898 54.7879 71.2898 49.7273C71.2898 44.6515 72.2443 40.3333 74.1534 36.7727C76.0625 33.2121 78.6534 30.5 81.9261 28.6364C85.1989 26.7576 88.8807 25.8182 92.9716 25.8182C95.6686 25.8182 98.1686 26.197 100.472 26.9545C102.79 27.7121 104.843 28.8182 106.631 30.2727C108.419 31.7121 109.873 33.4773 110.994 35.5682C112.131 37.6591 112.858 40.053 113.176 42.75ZM130.006 73.6591C127.778 73.6591 125.794 73.2727 124.051 72.5C122.309 71.7121 120.93 70.553 119.915 69.0227C118.915 67.4773 118.415 65.553 118.415 63.25C118.415 61.3106 118.771 59.6818 119.483 58.3636C120.195 57.0455 121.165 55.9848 122.392 55.1818C123.619 54.3788 125.013 53.7727 126.574 53.3636C128.15 52.9545 129.801 52.6667 131.528 52.5C133.559 52.2879 135.195 52.0909 136.438 51.9091C137.68 51.7121 138.581 51.4242 139.142 51.0455C139.703 50.6667 139.983 50.1061 139.983 49.3636V49.2273C139.983 47.7879 139.528 46.6742 138.619 45.8864C137.725 45.0985 136.453 44.7045 134.801 44.7045C133.059 44.7045 131.672 45.0909 130.642 45.8636C129.612 46.6212 128.93 47.5758 128.597 48.7273L119.642 48C120.097 45.8788 120.991 44.0455 122.324 42.5C123.657 40.9394 125.377 39.7424 127.483 38.9091C129.604 38.0606 132.059 37.6364 134.847 37.6364C136.786 37.6364 138.642 37.8636 140.415 38.3182C142.203 38.7727 143.786 39.4773 145.165 40.4318C146.559 41.3864 147.657 42.6136 148.46 44.1136C149.263 45.5985 149.665 47.3788 149.665 49.4545V73H140.483V68.1591H140.21C139.65 69.25 138.9 70.2121 137.96 71.0455C137.021 71.8636 135.892 72.5076 134.574 72.9773C133.256 73.4318 131.733 73.6591 130.006 73.6591ZM132.778 66.9773C134.203 66.9773 135.46 66.697 136.551 66.1364C137.642 65.5606 138.498 64.7879 139.119 63.8182C139.741 62.8485 140.051 61.75 140.051 60.5227V56.8182C139.748 57.0152 139.331 57.197 138.801 57.3636C138.286 57.5152 137.703 57.6591 137.051 57.7955C136.4 57.9167 135.748 58.0303 135.097 58.1364C134.445 58.2273 133.854 58.3106 133.324 58.3864C132.188 58.553 131.195 58.8182 130.347 59.1818C129.498 59.5455 128.839 60.0379 128.369 60.6591C127.9 61.2652 127.665 62.0227 127.665 62.9318C127.665 64.25 128.142 65.2576 129.097 65.9545C130.066 66.6364 131.294 66.9773 132.778 66.9773ZM157.176 73V38.0909H166.562V44.1818H166.926C167.563 42.0152 168.631 40.3788 170.131 39.2727C171.631 38.1515 173.358 37.5909 175.312 37.5909C175.797 37.5909 176.32 37.6212 176.881 37.6818C177.441 37.7424 177.934 37.8258 178.358 37.9318V46.5227C177.903 46.3864 177.275 46.2652 176.472 46.1591C175.669 46.053 174.934 46 174.267 46C172.843 46 171.57 46.3106 170.449 46.9318C169.343 47.5379 168.464 48.3864 167.812 49.4773C167.176 50.5682 166.858 51.8258 166.858 53.25V73H157.176ZM212.409 48.0455L203.545 48.5909C203.394 47.8333 203.068 47.1515 202.568 46.5455C202.068 45.9242 201.409 45.4318 200.591 45.0682C199.788 44.6894 198.826 44.5 197.705 44.5C196.205 44.5 194.939 44.8182 193.909 45.4545C192.879 46.0758 192.364 46.9091 192.364 47.9545C192.364 48.7879 192.697 49.4924 193.364 50.0682C194.03 50.6439 195.174 51.1061 196.795 51.4545L203.114 52.7273C206.508 53.4242 209.038 54.5455 210.705 56.0909C212.371 57.6364 213.205 59.6667 213.205 62.1818C213.205 64.4697 212.53 66.4773 211.182 68.2045C209.848 69.9318 208.015 71.2803 205.682 72.25C203.364 73.2045 200.689 73.6818 197.659 73.6818C193.038 73.6818 189.356 72.7197 186.614 70.7955C183.886 68.8561 182.288 66.2197 181.818 62.8864L191.341 62.3864C191.629 63.7955 192.326 64.8712 193.432 65.6136C194.538 66.3409 195.955 66.7045 197.682 66.7045C199.379 66.7045 200.742 66.3788 201.773 65.7273C202.818 65.0606 203.348 64.2045 203.364 63.1591C203.348 62.2803 202.977 61.5606 202.25 61C201.523 60.4242 200.402 59.9848 198.886 59.6818L192.841 58.4773C189.432 57.7955 186.894 56.6136 185.227 54.9318C183.576 53.25 182.75 51.1061 182.75 48.5C182.75 46.2576 183.356 44.3258 184.568 42.7045C185.795 41.0833 187.515 39.8333 189.727 38.9545C191.955 38.0758 194.561 37.6364 197.545 37.6364C201.955 37.6364 205.424 38.5682 207.955 40.4318C210.5 42.2955 211.985 44.8333 212.409 48.0455Z" fill="#F5F5F5"/>
</svg>
